Coordinates
version=1
nRows=6
nColumns=52
inDegrees=yes

Units are S.I. units (second, meters, Newtons, ...)
If the header above contains a line with 'inDegrees', this indicates whether rotational values are in degrees (yes) or radians (no).

endheader
time	pelvis_tilt	pelvis_list	pelvis_rotation	pelvis_tx	pelvis_ty	pelvis_tz	hip_flexion_r	hip_adduction_r	hip_rotation_r	knee_angle_r	knee_angle_r_beta	ankle_angle_r	subtalar_angle_r	mtp_angle_r	hip_flexion_l	hip_adduction_l	hip_rotation_l	knee_angle_l	knee_angle_l_beta	ankle_angle_l	subtalar_angle_l	mtp_angle_l	lumbar_bending	lumbar_extension	lumbar_twist	thorax_bending	thorax_extension	thorax_twist	head_bending	head_extension	head_twist	scapula_abduction_r	scapula_elevation_r	scapula_upward_rot_r	scapula_abduction_l	scapula_elevation_l	scapula_upward_rot_l	shoulder_r_x	shoulder_r_y	shoulder_r_z	shoulder_l_x	shoulder_l_y	shoulder_l_z	elbow_flexion_r	elbow_flexion_l	pro_sup_r	pro_sup_l	wrist_flexion_r	wrist_deviation_r	wrist_flexion_l	wrist_deviation_l
      0.00000000	      5.53718839	    -45.55431244	    -88.65686313	      0.18548890	     -0.05718558	     74.08491456	     55.82382808	     27.60793392	    -32.93833694	     24.57662744	      0.42894307	     -5.58295144	     18.79342596	      0.97387615	     53.50179900	      2.19299780	     39.86546012	     54.95035832	      0.95906468	     29.79500910	    -19.83935202	    -13.95479777	    -42.50487303	    -64.54942288	    -12.56745911	    -14.57604236	    -20.27868661	     46.79386955	     55.47230581	    -62.34814743	     19.77338501	    -51.74327335	      1.39509604	    -16.95590980	    -51.92812332	    -11.16231307	     -9.95886015	     33.36835317	    -19.43303246	     41.60890519	    179.47444900	   -215.62623655	     89.74629818	     51.05482061	     -7.58705719	     30.19984485	     64.44063236	     -8.02848858	    -22.52095547	    -28.40054653	      8.58083948
      0.03333330	      7.23493703	    -44.12394135	    -89.88997212	      0.17454423	     -0.05863953	     74.68798746	     56.77652425	     29.60487709	    -32.68208310	     24.67164785	      0.43060149	     -6.07325015	     17.74733467	      0.97788887	     54.53129569	      1.01614614	     39.93758312	     55.53688903	      0.96930157	     29.90386260	    -19.92807140	    -12.68105990	    -42.71997480	    -64.69845298	    -14.50614891	    -13.16987441	    -15.79871180	     46.84290315	     47.92587540	    -62.40533923	     26.73017113	    -51.62533591	      0.25992116	    -17.09917060	    -53.61918416	    -10.59598551	     -7.99087015	     35.52964009	    -18.23411781	     39.83038560	    178.23756943	   -214.67993135	     89.14430899	     49.56217621	     -8.81609274	     30.44530705	     64.10906082	     -7.40909684	    -22.41258741	    -28.29088509	      8.92602259
      0.06666670	     15.22325501	    -52.02323043	    -92.16745374	      0.15644715	     -0.04098964	     75.84392388	     44.10671639	     29.56694044	    -33.79296051	     28.59764949	      0.49912314	     -8.59053059	     18.81835492	      1.69161198	     41.26598751	      4.26801142	     39.07514749	     58.32482937	      1.01796031	     29.34433194	    -19.52060228	    -13.11719107	    -56.64792842	    -63.68413236	    -14.25329664	    -22.71604337	    -12.79405988	     43.89541101	    -53.40054474	    -62.11972500	     -8.30804072	    -51.98249698	      4.73171400	    -16.27419661	    -61.90666844	    -10.92405370	    -14.43742074	     28.30984802	     -8.92696610	     48.24290689	    177.38279865	   -223.05467880	     87.99954275	     42.81852828	    -10.75611368	     34.82653514	     61.34434273	     -0.97942573	    -23.39197365	    -23.21009786	      6.58104256
      0.10000000	      9.52218580	    -44.61198461	    -87.90632877	      0.13970741	     -0.06546598	     74.56673595	     56.36668566	     28.05308536	    -29.55736683	     24.59171918	      0.42920647	     -7.85656032	     15.46300944	      1.26814545	     54.00451528	      2.03002349	     38.14187454	     55.40359540	      0.96697516	     27.72795767	    -18.25155639	    -10.68788344	    -44.91747352	    -63.40967568	    -11.78880663	    -12.41039493	    -14.94769909	     42.97294820	     43.68382328	    -61.26651800	     26.68250414	    -52.85216469	     -0.65915015	    -14.78614931	    -56.79266190	     -8.54016277	      0.97295200	     35.96751727	    -16.55701545	     41.58884562	    174.09222229	   -219.21898233	     85.15662663	     48.73989698	     -9.07976293	     33.56287009	     63.12013282	     -4.26698032	    -23.69723927	    -26.86499668	      5.84387794
      0.13333300	      8.29061258	    -42.96232454	    -89.50243409	      0.13197161	     -0.07304405	     74.15089476	     57.58420098	     27.16540474	    -28.50997530	     25.02934662	      0.43684451	     -7.50205419	     15.04181952	      1.15735873	     57.45545877	      0.51132137	     38.35782373	     55.02984760	      0.96045203	     28.00966644	    -18.28204311	    -10.31910854	    -44.58202783	    -63.37767520	    -12.33157414	    -11.95682513	    -13.86474020	     43.63553768	     38.52517614	    -61.19504818	     30.69218197	    -53.27915619	     -1.84809810	    -15.21892450	    -56.90800958	     -8.65115391	      1.69987659	     36.61879966	    -16.52959618	     43.19178681	    174.23252251	   -219.83633585	     85.86070399	     49.87362423	     -9.08436100	     33.42477938	     63.12365267	     -4.42606458	    -23.83374150	    -26.88436333	      5.78583316
      0.16666700	     -0.77843978	    -43.54781175	    -88.82863200	      0.12564964	     -0.06444062	     74.39383367	     57.94629755	     29.09073082	    -35.12619172	     20.56270197	      0.35888685	     -8.50388815	     17.98074440	      2.01392548	     57.05018157	     -1.54667347	     39.50210586	     51.05256122	      0.89103528	     29.26867719	    -19.38736432	    -17.24862723	    -30.53958339	    -64.19879507	    -12.56359697	    -17.80860261	    -17.89528914	     45.37020695	     54.84344633	    -62.04937398	     15.55118403	    -52.12410188	      1.49227442	    -16.42910592	    -53.60926899	    -10.62588934	     -6.47208413	     33.78526832	    -17.87208275	     47.21703435	    178.42111247	   -218.62969894	     88.82276683	     53.18741518	     -5.28636490	     32.75561729	     64.59659763	     -5.52908532	    -23.25531191	    -26.79280582	     10.58915388
